<mxfile host="app.diagrams.net" agent="Mozilla/5.0 (X11; Linux x86_64; rv:133.0) Gecko/20100101 Firefox/133.0" version="26.0.16" pages="2">
  <diagram name="Page-1" id="_FBz-TtuDutDwLrLj6u4">
    <mxGraphModel dx="2974" dy="1111" grid="1" gridSize="10" guides="1" tooltips="1" connect="1" arrows="1" fold="1" page="0" pageScale="1" pageWidth="850" pageHeight="1100" background="#ffffff" math="0" shadow="0">
      <root>
        <mxCell id="0" />
        <mxCell id="1" parent="0" />
        <mxCell id="dQc82pCLKpcdSRDURRdO-141" value="&amp;nbsp;" style="text;whiteSpace=wrap;html=1;" parent="1" vertex="1">
          <mxGeometry x="-2180" y="-710" width="40" height="40" as="geometry" />
        </mxCell>
        <mxCell id="DVR4bQceARmdJa0iFLZY-27" style="edgeStyle=orthogonalEdgeStyle;rounded=0;orthogonalLoop=1;jettySize=auto;html=1;entryX=0;entryY=0.5;entryDx=0;entryDy=0;endArrow=none;startFill=0;" edge="1" parent="1" source="DVR4bQceARmdJa0iFLZY-1" target="DVR4bQceARmdJa0iFLZY-2">
          <mxGeometry relative="1" as="geometry" />
        </mxCell>
        <mxCell id="DVR4bQceARmdJa0iFLZY-1" value="Actor" style="shape=umlActor;verticalLabelPosition=bottom;verticalAlign=top;html=1;outlineConnect=0;" vertex="1" parent="1">
          <mxGeometry x="-2050" y="-535" width="35" height="70" as="geometry" />
        </mxCell>
        <mxCell id="DVR4bQceARmdJa0iFLZY-5" style="edgeStyle=orthogonalEdgeStyle;rounded=0;orthogonalLoop=1;jettySize=auto;html=1;entryX=0;entryY=0.5;entryDx=0;entryDy=0;endArrow=none;startFill=0;" edge="1" parent="1" source="DVR4bQceARmdJa0iFLZY-2" target="DVR4bQceARmdJa0iFLZY-3">
          <mxGeometry relative="1" as="geometry" />
        </mxCell>
        <mxCell id="DVR4bQceARmdJa0iFLZY-2" value=":Frontend" style="rounded=0;whiteSpace=wrap;html=1;" vertex="1" parent="1">
          <mxGeometry x="-1810" y="-520" width="130.91" height="40" as="geometry" />
        </mxCell>
        <mxCell id="DVR4bQceARmdJa0iFLZY-7" style="edgeStyle=orthogonalEdgeStyle;rounded=0;orthogonalLoop=1;jettySize=auto;html=1;endArrow=none;startFill=0;" edge="1" parent="1" source="DVR4bQceARmdJa0iFLZY-3" target="DVR4bQceARmdJa0iFLZY-4">
          <mxGeometry relative="1" as="geometry" />
        </mxCell>
        <mxCell id="DVR4bQceARmdJa0iFLZY-10" style="edgeStyle=orthogonalEdgeStyle;rounded=0;orthogonalLoop=1;jettySize=auto;html=1;endArrow=none;startFill=0;" edge="1" parent="1" source="DVR4bQceARmdJa0iFLZY-3" target="DVR4bQceARmdJa0iFLZY-8">
          <mxGeometry relative="1" as="geometry" />
        </mxCell>
        <mxCell id="DVR4bQceARmdJa0iFLZY-3" value=":Router" style="rounded=0;whiteSpace=wrap;html=1;" vertex="1" parent="1">
          <mxGeometry x="-1460" y="-520" width="130.91" height="40" as="geometry" />
        </mxCell>
        <mxCell id="DVR4bQceARmdJa0iFLZY-4" value=":Middleware" style="rounded=0;whiteSpace=wrap;html=1;" vertex="1" parent="1">
          <mxGeometry x="-1460" y="-30" width="130.91" height="40" as="geometry" />
        </mxCell>
        <mxCell id="DVR4bQceARmdJa0iFLZY-11" style="edgeStyle=orthogonalEdgeStyle;rounded=0;orthogonalLoop=1;jettySize=auto;html=1;entryX=0;entryY=0.5;entryDx=0;entryDy=0;endArrow=none;startFill=0;" edge="1" parent="1" source="DVR4bQceARmdJa0iFLZY-8" target="DVR4bQceARmdJa0iFLZY-9">
          <mxGeometry relative="1" as="geometry" />
        </mxCell>
        <mxCell id="DVR4bQceARmdJa0iFLZY-8" value=":Controller" style="rounded=0;whiteSpace=wrap;html=1;" vertex="1" parent="1">
          <mxGeometry x="-1130" y="-520" width="130.91" height="40" as="geometry" />
        </mxCell>
        <mxCell id="DVR4bQceARmdJa0iFLZY-13" style="edgeStyle=orthogonalEdgeStyle;rounded=0;orthogonalLoop=1;jettySize=auto;html=1;entryX=0;entryY=0.5;entryDx=0;entryDy=0;endArrow=none;startFill=0;" edge="1" parent="1" source="DVR4bQceARmdJa0iFLZY-9" target="DVR4bQceARmdJa0iFLZY-12">
          <mxGeometry relative="1" as="geometry" />
        </mxCell>
        <mxCell id="DVR4bQceARmdJa0iFLZY-9" value=":Service" style="rounded=0;whiteSpace=wrap;html=1;" vertex="1" parent="1">
          <mxGeometry x="-790" y="-520" width="130.91" height="40" as="geometry" />
        </mxCell>
        <mxCell id="NtosG1L_evyIxKAnBTzC-6" style="edgeStyle=orthogonalEdgeStyle;rounded=0;orthogonalLoop=1;jettySize=auto;html=1;endArrow=none;startFill=0;" edge="1" parent="1" source="DVR4bQceARmdJa0iFLZY-12" target="NtosG1L_evyIxKAnBTzC-5">
          <mxGeometry relative="1" as="geometry" />
        </mxCell>
        <mxCell id="DVR4bQceARmdJa0iFLZY-12" value=":Repository" style="rounded=0;whiteSpace=wrap;html=1;" vertex="1" parent="1">
          <mxGeometry x="-460.91" y="-520" width="130.91" height="40" as="geometry" />
        </mxCell>
        <mxCell id="DVR4bQceARmdJa0iFLZY-14" value="" style="endArrow=classic;html=1;rounded=0;" edge="1" parent="1">
          <mxGeometry width="50" height="50" relative="1" as="geometry">
            <mxPoint x="-1650" y="-510" as="sourcePoint" />
            <mxPoint x="-1480" y="-510" as="targetPoint" />
          </mxGeometry>
        </mxCell>
        <mxCell id="DVR4bQceARmdJa0iFLZY-15" value="" style="endArrow=classic;html=1;rounded=0;dashed=1;" edge="1" parent="1">
          <mxGeometry width="50" height="50" relative="1" as="geometry">
            <mxPoint x="-1480" y="-490" as="sourcePoint" />
            <mxPoint x="-1650" y="-490" as="targetPoint" />
          </mxGeometry>
        </mxCell>
        <mxCell id="DVR4bQceARmdJa0iFLZY-16" value="" style="endArrow=classic;html=1;rounded=0;" edge="1" parent="1">
          <mxGeometry width="50" height="50" relative="1" as="geometry">
            <mxPoint x="-1310" y="-510.24" as="sourcePoint" />
            <mxPoint x="-1140" y="-510.24" as="targetPoint" />
          </mxGeometry>
        </mxCell>
        <mxCell id="DVR4bQceARmdJa0iFLZY-17" value="" style="endArrow=classic;html=1;rounded=0;dashed=1;" edge="1" parent="1">
          <mxGeometry width="50" height="50" relative="1" as="geometry">
            <mxPoint x="-1140" y="-490.24" as="sourcePoint" />
            <mxPoint x="-1310" y="-490.24" as="targetPoint" />
          </mxGeometry>
        </mxCell>
        <mxCell id="DVR4bQceARmdJa0iFLZY-18" value="" style="endArrow=classic;html=1;rounded=0;" edge="1" parent="1">
          <mxGeometry width="50" height="50" relative="1" as="geometry">
            <mxPoint x="-980" y="-510.34" as="sourcePoint" />
            <mxPoint x="-810" y="-510.34" as="targetPoint" />
          </mxGeometry>
        </mxCell>
        <mxCell id="DVR4bQceARmdJa0iFLZY-19" value="" style="endArrow=classic;html=1;rounded=0;dashed=1;" edge="1" parent="1">
          <mxGeometry width="50" height="50" relative="1" as="geometry">
            <mxPoint x="-810" y="-490.34" as="sourcePoint" />
            <mxPoint x="-980" y="-490.34" as="targetPoint" />
          </mxGeometry>
        </mxCell>
        <mxCell id="DVR4bQceARmdJa0iFLZY-21" value="" style="endArrow=classic;html=1;rounded=0;" edge="1" parent="1">
          <mxGeometry width="50" height="50" relative="1" as="geometry">
            <mxPoint x="-640" y="-510.28" as="sourcePoint" />
            <mxPoint x="-470" y="-510.28" as="targetPoint" />
          </mxGeometry>
        </mxCell>
        <mxCell id="DVR4bQceARmdJa0iFLZY-22" value="" style="endArrow=classic;html=1;rounded=0;dashed=1;" edge="1" parent="1">
          <mxGeometry width="50" height="50" relative="1" as="geometry">
            <mxPoint x="-470" y="-490.28" as="sourcePoint" />
            <mxPoint x="-640" y="-490.28" as="targetPoint" />
          </mxGeometry>
        </mxCell>
        <mxCell id="DVR4bQceARmdJa0iFLZY-25" value="" style="endArrow=classic;html=1;rounded=0;" edge="1" parent="1">
          <mxGeometry width="50" height="50" relative="1" as="geometry">
            <mxPoint x="-1410" y="-440" as="sourcePoint" />
            <mxPoint x="-1410" y="-80" as="targetPoint" />
          </mxGeometry>
        </mxCell>
        <mxCell id="DVR4bQceARmdJa0iFLZY-26" value="" style="endArrow=classic;html=1;rounded=0;dashed=1;" edge="1" parent="1">
          <mxGeometry width="50" height="50" relative="1" as="geometry">
            <mxPoint x="-1380" y="-90" as="sourcePoint" />
            <mxPoint x="-1380" y="-440" as="targetPoint" />
          </mxGeometry>
        </mxCell>
        <mxCell id="DVR4bQceARmdJa0iFLZY-29" value="" style="endArrow=classic;html=1;rounded=0;" edge="1" parent="1">
          <mxGeometry width="50" height="50" relative="1" as="geometry">
            <mxPoint x="-1990" y="-510" as="sourcePoint" />
            <mxPoint x="-1830" y="-510" as="targetPoint" />
          </mxGeometry>
        </mxCell>
        <mxCell id="DVR4bQceARmdJa0iFLZY-30" value="" style="endArrow=classic;html=1;rounded=0;dashed=1;" edge="1" parent="1">
          <mxGeometry width="50" height="50" relative="1" as="geometry">
            <mxPoint x="-1830" y="-490" as="sourcePoint" />
            <mxPoint x="-1990" y="-490" as="targetPoint" />
          </mxGeometry>
        </mxCell>
        <mxCell id="NtosG1L_evyIxKAnBTzC-1" value="1. GET/api/classes" style="text;html=1;align=center;verticalAlign=middle;resizable=0;points=[];autosize=1;strokeColor=none;fillColor=none;" vertex="1" parent="1">
          <mxGeometry x="-1620" y="-540" width="120" height="30" as="geometry" />
        </mxCell>
        <mxCell id="NtosG1L_evyIxKAnBTzC-3" value="2. .Use(Middleware)" style="text;html=1;align=center;verticalAlign=middle;resizable=0;points=[];autosize=1;strokeColor=none;fillColor=none;" vertex="1" parent="1">
          <mxGeometry x="-1569.09" y="-180" width="140" height="30" as="geometry" />
        </mxCell>
        <mxCell id="NtosG1L_evyIxKAnBTzC-4" value="3a. [Unauthorized (401 Unauthorized)] 401 Unauthorized" style="text;html=1;align=center;verticalAlign=middle;resizable=0;points=[];autosize=1;strokeColor=none;fillColor=none;" vertex="1" parent="1">
          <mxGeometry x="-1370" y="-220" width="350" height="30" as="geometry" />
        </mxCell>
        <mxCell id="NtosG1L_evyIxKAnBTzC-5" value=":Database" style="rounded=0;whiteSpace=wrap;html=1;" vertex="1" parent="1">
          <mxGeometry x="-460.91" y="-200" width="130.91" height="40" as="geometry" />
        </mxCell>
        <mxCell id="NtosG1L_evyIxKAnBTzC-8" value="" style="endArrow=classic;html=1;rounded=0;" edge="1" parent="1">
          <mxGeometry width="50" height="50" relative="1" as="geometry">
            <mxPoint x="-410.76" y="-440" as="sourcePoint" />
            <mxPoint x="-410.76" y="-220" as="targetPoint" />
          </mxGeometry>
        </mxCell>
        <mxCell id="NtosG1L_evyIxKAnBTzC-9" value="" style="endArrow=classic;html=1;rounded=0;dashed=1;" edge="1" parent="1">
          <mxGeometry width="50" height="50" relative="1" as="geometry">
            <mxPoint x="-380.76" y="-220" as="sourcePoint" />
            <mxPoint x="-380.76" y="-440" as="targetPoint" />
          </mxGeometry>
        </mxCell>
        <mxCell id="NtosG1L_evyIxKAnBTzC-10" value="4a. 401 Unauthorized" style="text;html=1;align=center;verticalAlign=middle;resizable=0;points=[];autosize=1;strokeColor=none;fillColor=none;" vertex="1" parent="1">
          <mxGeometry x="-1665" y="-490" width="150" height="30" as="geometry" />
        </mxCell>
        <mxCell id="NtosG1L_evyIxKAnBTzC-11" value="5a.Show error &quot;Please log in&quot;" style="text;html=1;align=center;verticalAlign=middle;resizable=0;points=[];autosize=1;strokeColor=none;fillColor=none;" vertex="1" parent="1">
          <mxGeometry x="-2015" y="-490" width="190" height="30" as="geometry" />
        </mxCell>
        <mxCell id="NtosG1L_evyIxKAnBTzC-12" value="3b. [Authorized] Proceed" style="text;html=1;align=center;verticalAlign=middle;resizable=0;points=[];autosize=1;strokeColor=none;fillColor=none;" vertex="1" parent="1">
          <mxGeometry x="-1370" y="-200" width="170" height="30" as="geometry" />
        </mxCell>
        <mxCell id="NtosG1L_evyIxKAnBTzC-13" value="4b. .GetAllClasses()" style="text;html=1;align=center;verticalAlign=middle;resizable=0;points=[];autosize=1;strokeColor=none;fillColor=none;" vertex="1" parent="1">
          <mxGeometry x="-1290" y="-540" width="130" height="30" as="geometry" />
        </mxCell>
        <mxCell id="NtosG1L_evyIxKAnBTzC-14" value="5b. .GetAllClasses()" style="text;html=1;align=center;verticalAlign=middle;resizable=0;points=[];autosize=1;strokeColor=none;fillColor=none;" vertex="1" parent="1">
          <mxGeometry x="-970" y="-540" width="130" height="30" as="geometry" />
        </mxCell>
        <mxCell id="NtosG1L_evyIxKAnBTzC-15" value="6b. .GetAllClasses()" style="text;html=1;align=center;verticalAlign=middle;resizable=0;points=[];autosize=1;strokeColor=none;fillColor=none;" vertex="1" parent="1">
          <mxGeometry x="-630" y="-540" width="130" height="30" as="geometry" />
        </mxCell>
        <mxCell id="NtosG1L_evyIxKAnBTzC-16" value="7b. SELECT * FROM classes WHERE owner_id = @user_id" style="text;html=1;align=center;verticalAlign=middle;resizable=0;points=[];autosize=1;strokeColor=none;fillColor=none;" vertex="1" parent="1">
          <mxGeometry x="-760" y="-350" width="350" height="30" as="geometry" />
        </mxCell>
        <mxCell id="NtosG1L_evyIxKAnBTzC-17" value="8b. Classes" style="text;html=1;align=center;verticalAlign=middle;resizable=0;points=[];autosize=1;strokeColor=none;fillColor=none;" vertex="1" parent="1">
          <mxGeometry x="-375" y="-350" width="80" height="30" as="geometry" />
        </mxCell>
        <mxCell id="NtosG1L_evyIxKAnBTzC-18" value="9b. Classes" style="text;html=1;align=center;verticalAlign=middle;resizable=0;points=[];autosize=1;strokeColor=none;fillColor=none;" vertex="1" parent="1">
          <mxGeometry x="-625" y="-490" width="80" height="30" as="geometry" />
        </mxCell>
        <mxCell id="NtosG1L_evyIxKAnBTzC-19" value="10b. Classes" style="text;html=1;align=center;verticalAlign=middle;resizable=0;points=[];autosize=1;strokeColor=none;fillColor=none;" vertex="1" parent="1">
          <mxGeometry x="-975" y="-490" width="90" height="30" as="geometry" />
        </mxCell>
        <mxCell id="NtosG1L_evyIxKAnBTzC-20" value="11b.1. [Classes == Error] 500 Internal Server Error" style="text;html=1;align=center;verticalAlign=middle;resizable=0;points=[];autosize=1;strokeColor=none;fillColor=none;" vertex="1" parent="1">
          <mxGeometry x="-1330" y="-480" width="310" height="30" as="geometry" />
        </mxCell>
        <mxCell id="NtosG1L_evyIxKAnBTzC-21" value="11b.2. [Classes == Null] 404 Not Found" style="text;html=1;align=center;verticalAlign=middle;resizable=0;points=[];autosize=1;strokeColor=none;fillColor=none;" vertex="1" parent="1">
          <mxGeometry x="-1330" y="-460" width="240" height="30" as="geometry" />
        </mxCell>
        <mxCell id="NtosG1L_evyIxKAnBTzC-22" value="12b.1. 500 Internal Server Error " style="text;html=1;align=center;verticalAlign=middle;resizable=0;points=[];autosize=1;strokeColor=none;fillColor=none;" vertex="1" parent="1">
          <mxGeometry x="-1665" y="-470" width="210" height="30" as="geometry" />
        </mxCell>
        <mxCell id="NtosG1L_evyIxKAnBTzC-23" value="12b.2. 404 Not Found" style="text;html=1;align=center;verticalAlign=middle;resizable=0;points=[];autosize=1;strokeColor=none;fillColor=none;" vertex="1" parent="1">
          <mxGeometry x="-1660" y="-450" width="140" height="30" as="geometry" />
        </mxCell>
        <mxCell id="NtosG1L_evyIxKAnBTzC-24" value="13b.1. Show error &quot;Failed to fetch classes&quot;" style="text;html=1;align=center;verticalAlign=middle;resizable=0;points=[];autosize=1;strokeColor=none;fillColor=none;" vertex="1" parent="1">
          <mxGeometry x="-2015" y="-470" width="260" height="30" as="geometry" />
        </mxCell>
        <mxCell id="NtosG1L_evyIxKAnBTzC-25" value="13b.2. Show error &quot;Class not found&quot;" style="text;html=1;align=center;verticalAlign=middle;resizable=0;points=[];autosize=1;strokeColor=none;fillColor=none;" vertex="1" parent="1">
          <mxGeometry x="-2020" y="-450" width="230" height="30" as="geometry" />
        </mxCell>
        <mxCell id="NtosG1L_evyIxKAnBTzC-26" value="11b. 200 OK" style="text;html=1;align=center;verticalAlign=middle;resizable=0;points=[];autosize=1;strokeColor=none;fillColor=none;" vertex="1" parent="1">
          <mxGeometry x="-1329.09" y="-440" width="90" height="30" as="geometry" />
        </mxCell>
        <mxCell id="NtosG1L_evyIxKAnBTzC-27" value="12b. 200 OK" style="text;html=1;align=center;verticalAlign=middle;resizable=0;points=[];autosize=1;strokeColor=none;fillColor=none;" vertex="1" parent="1">
          <mxGeometry x="-1660" y="-430" width="90" height="30" as="geometry" />
        </mxCell>
        <mxCell id="NtosG1L_evyIxKAnBTzC-28" value="13b. Show classes list" style="text;html=1;align=center;verticalAlign=middle;resizable=0;points=[];autosize=1;strokeColor=none;fillColor=none;" vertex="1" parent="1">
          <mxGeometry x="-2015" y="-430" width="140" height="30" as="geometry" />
        </mxCell>
        <mxCell id="NtosG1L_evyIxKAnBTzC-29" value="3. [opt][User select a class] .handleClassClick(classId) " style="text;html=1;align=center;verticalAlign=middle;resizable=0;points=[];autosize=1;strokeColor=none;fillColor=none;" vertex="1" parent="1">
          <mxGeometry x="-2015" y="-550" width="320" height="30" as="geometry" />
        </mxCell>
        <mxCell id="NtosG1L_evyIxKAnBTzC-30" value="4. GET/api/courses" style="text;html=1;align=center;verticalAlign=middle;resizable=0;points=[];autosize=1;strokeColor=none;fillColor=none;" vertex="1" parent="1">
          <mxGeometry x="-1625" y="-560" width="130" height="30" as="geometry" />
        </mxCell>
        <mxCell id="NtosG1L_evyIxKAnBTzC-31" value="5. .Use(Middleware)" style="text;html=1;align=center;verticalAlign=middle;resizable=0;points=[];autosize=1;strokeColor=none;fillColor=none;" vertex="1" parent="1">
          <mxGeometry x="-1569.09" y="-160" width="140" height="30" as="geometry" />
        </mxCell>
        <mxCell id="NtosG1L_evyIxKAnBTzC-33" value="5c. [Unauthorized (401 Unauthorized)] 401 Unauthorized" style="text;html=1;align=center;verticalAlign=middle;resizable=0;points=[];autosize=1;strokeColor=none;fillColor=none;" vertex="1" parent="1">
          <mxGeometry x="-1370" y="-180" width="350" height="30" as="geometry" />
        </mxCell>
        <mxCell id="NtosG1L_evyIxKAnBTzC-34" value="6c. 401 Unauthorized" style="text;html=1;align=center;verticalAlign=middle;resizable=0;points=[];autosize=1;strokeColor=none;fillColor=none;" vertex="1" parent="1">
          <mxGeometry x="-1660" y="-410" width="140" height="30" as="geometry" />
        </mxCell>
        <mxCell id="NtosG1L_evyIxKAnBTzC-35" value="7c. Show error &quot;Please log in&quot;" style="text;html=1;align=center;verticalAlign=middle;resizable=0;points=[];autosize=1;strokeColor=none;fillColor=none;" vertex="1" parent="1">
          <mxGeometry x="-2015" y="-410" width="190" height="30" as="geometry" />
        </mxCell>
        <mxCell id="NtosG1L_evyIxKAnBTzC-36" value="5d. [Authorized] Proceed" style="text;html=1;align=center;verticalAlign=middle;resizable=0;points=[];autosize=1;strokeColor=none;fillColor=none;" vertex="1" parent="1">
          <mxGeometry x="-1370" y="-160" width="170" height="30" as="geometry" />
        </mxCell>
        <mxCell id="NtosG1L_evyIxKAnBTzC-37" value="6d. .GetAllCourses(classId)" style="text;html=1;align=center;verticalAlign=middle;resizable=0;points=[];autosize=1;strokeColor=none;fillColor=none;" vertex="1" parent="1">
          <mxGeometry x="-1290" y="-560" width="170" height="30" as="geometry" />
        </mxCell>
        <mxCell id="NtosG1L_evyIxKAnBTzC-38" value="7d. .GetAllCourses(classId)" style="text;html=1;align=center;verticalAlign=middle;resizable=0;points=[];autosize=1;strokeColor=none;fillColor=none;" vertex="1" parent="1">
          <mxGeometry x="-975" y="-560" width="170" height="30" as="geometry" />
        </mxCell>
        <mxCell id="NtosG1L_evyIxKAnBTzC-39" value="8d. .GetAllCourses(classId)" style="text;html=1;align=center;verticalAlign=middle;resizable=0;points=[];autosize=1;strokeColor=none;fillColor=none;" vertex="1" parent="1">
          <mxGeometry x="-630.91" y="-560" width="170" height="30" as="geometry" />
        </mxCell>
        <mxCell id="NtosG1L_evyIxKAnBTzC-40" value="9d. SELECT * FROM course WHERE owner_id = @user_id" style="text;html=1;align=center;verticalAlign=middle;resizable=0;points=[];autosize=1;strokeColor=none;fillColor=none;" vertex="1" parent="1">
          <mxGeometry x="-760" y="-330" width="350" height="30" as="geometry" />
        </mxCell>
        <mxCell id="NtosG1L_evyIxKAnBTzC-41" value="10d. Courses" style="text;html=1;align=center;verticalAlign=middle;resizable=0;points=[];autosize=1;strokeColor=none;fillColor=none;" vertex="1" parent="1">
          <mxGeometry x="-380" y="-330" width="100" height="30" as="geometry" />
        </mxCell>
        <mxCell id="NtosG1L_evyIxKAnBTzC-42" value="11d. Courses" style="text;html=1;align=center;verticalAlign=middle;resizable=0;points=[];autosize=1;strokeColor=none;fillColor=none;" vertex="1" parent="1">
          <mxGeometry x="-630" y="-470" width="100" height="30" as="geometry" />
        </mxCell>
        <mxCell id="NtosG1L_evyIxKAnBTzC-43" value="12d. Courses" style="text;html=1;align=center;verticalAlign=middle;resizable=0;points=[];autosize=1;strokeColor=none;fillColor=none;" vertex="1" parent="1">
          <mxGeometry x="-975" y="-470" width="100" height="30" as="geometry" />
        </mxCell>
        <mxCell id="NtosG1L_evyIxKAnBTzC-46" value="13d.1. [Courses == Error] 500 Internal Server Error" style="text;html=1;align=center;verticalAlign=middle;resizable=0;points=[];autosize=1;strokeColor=none;fillColor=none;" vertex="1" parent="1">
          <mxGeometry x="-1329.09" y="-420" width="310" height="30" as="geometry" />
        </mxCell>
        <mxCell id="NtosG1L_evyIxKAnBTzC-47" value="13d.2. [Courses == Null] 404 Not Found" style="text;html=1;align=center;verticalAlign=middle;resizable=0;points=[];autosize=1;strokeColor=none;fillColor=none;" vertex="1" parent="1">
          <mxGeometry x="-1329.09" y="-400" width="240" height="30" as="geometry" />
        </mxCell>
        <mxCell id="NtosG1L_evyIxKAnBTzC-48" value="13d. 200 OK" style="text;html=1;align=center;verticalAlign=middle;resizable=0;points=[];autosize=1;strokeColor=none;fillColor=none;" vertex="1" parent="1">
          <mxGeometry x="-1329.09" y="-380" width="90" height="30" as="geometry" />
        </mxCell>
        <mxCell id="NtosG1L_evyIxKAnBTzC-49" value="14d.1. 500 Internal Server Error " style="text;html=1;align=center;verticalAlign=middle;resizable=0;points=[];autosize=1;strokeColor=none;fillColor=none;" vertex="1" parent="1">
          <mxGeometry x="-1665" y="-390" width="210" height="30" as="geometry" />
        </mxCell>
        <mxCell id="NtosG1L_evyIxKAnBTzC-50" value="14d.2. 404 Not Found" style="text;html=1;align=center;verticalAlign=middle;resizable=0;points=[];autosize=1;strokeColor=none;fillColor=none;" vertex="1" parent="1">
          <mxGeometry x="-1660" y="-370" width="140" height="30" as="geometry" />
        </mxCell>
        <mxCell id="NtosG1L_evyIxKAnBTzC-51" value="15d.1. Show error &quot;Failed to fetch courses&quot;" style="text;html=1;align=center;verticalAlign=middle;resizable=0;points=[];autosize=1;strokeColor=none;fillColor=none;" vertex="1" parent="1">
          <mxGeometry x="-2015" y="-390" width="260" height="30" as="geometry" />
        </mxCell>
        <mxCell id="NtosG1L_evyIxKAnBTzC-52" value="15d.2. Show error &quot;Courses not found&quot;" style="text;html=1;align=center;verticalAlign=middle;resizable=0;points=[];autosize=1;strokeColor=none;fillColor=none;" vertex="1" parent="1">
          <mxGeometry x="-2015" y="-370" width="240" height="30" as="geometry" />
        </mxCell>
        <mxCell id="NtosG1L_evyIxKAnBTzC-53" value="14d. 200 OK" style="text;html=1;align=center;verticalAlign=middle;resizable=0;points=[];autosize=1;strokeColor=none;fillColor=none;" vertex="1" parent="1">
          <mxGeometry x="-1660" y="-350" width="90" height="30" as="geometry" />
        </mxCell>
        <mxCell id="NtosG1L_evyIxKAnBTzC-54" value="15d. Show courses list" style="text;html=1;align=center;verticalAlign=middle;resizable=0;points=[];autosize=1;strokeColor=none;fillColor=none;" vertex="1" parent="1">
          <mxGeometry x="-2015" y="-350" width="150" height="30" as="geometry" />
        </mxCell>
        <mxCell id="NtosG1L_evyIxKAnBTzC-55" value="6. [opt][User select a course] .handleCoursesClick(courseId) " style="text;html=1;align=center;verticalAlign=middle;resizable=0;points=[];autosize=1;strokeColor=none;fillColor=none;" vertex="1" parent="1">
          <mxGeometry x="-2035" y="-565" width="360" height="30" as="geometry" />
        </mxCell>
        <mxCell id="NtosG1L_evyIxKAnBTzC-56" value="7. GET/api/courses/{courseId}" style="text;html=1;align=center;verticalAlign=middle;resizable=0;points=[];autosize=1;strokeColor=none;fillColor=none;" vertex="1" parent="1">
          <mxGeometry x="-1655" y="-580" width="190" height="30" as="geometry" />
        </mxCell>
        <mxCell id="NtosG1L_evyIxKAnBTzC-57" value="8. .Use(Middleware)" style="text;html=1;align=center;verticalAlign=middle;resizable=0;points=[];autosize=1;strokeColor=none;fillColor=none;" vertex="1" parent="1">
          <mxGeometry x="-1569.09" y="-140" width="140" height="30" as="geometry" />
        </mxCell>
        <mxCell id="NtosG1L_evyIxKAnBTzC-58" value="9e. [Unauthorized (401 Unauthorized)] 401 Unauthorized" style="text;html=1;align=center;verticalAlign=middle;resizable=0;points=[];autosize=1;strokeColor=none;fillColor=none;" vertex="1" parent="1">
          <mxGeometry x="-1369.09" y="-140" width="350" height="30" as="geometry" />
        </mxCell>
        <mxCell id="NtosG1L_evyIxKAnBTzC-59" value="9f. [Authorized] Proceed" style="text;html=1;align=center;verticalAlign=middle;resizable=0;points=[];autosize=1;strokeColor=none;fillColor=none;" vertex="1" parent="1">
          <mxGeometry x="-1365" y="-120" width="160" height="30" as="geometry" />
        </mxCell>
        <mxCell id="NtosG1L_evyIxKAnBTzC-60" value="10e. 401 Unauthorized" style="text;html=1;align=center;verticalAlign=middle;resizable=0;points=[];autosize=1;strokeColor=none;fillColor=none;" vertex="1" parent="1">
          <mxGeometry x="-1660" y="-330" width="150" height="30" as="geometry" />
        </mxCell>
        <mxCell id="NtosG1L_evyIxKAnBTzC-61" value="11e. Show error &quot;Please log in&quot;" style="text;html=1;align=center;verticalAlign=middle;resizable=0;points=[];autosize=1;strokeColor=none;fillColor=none;" vertex="1" parent="1">
          <mxGeometry x="-2015" y="-330" width="200" height="30" as="geometry" />
        </mxCell>
        <mxCell id="NtosG1L_evyIxKAnBTzC-62" value="10f. .GetCourse(courseId)" style="text;html=1;align=center;verticalAlign=middle;resizable=0;points=[];autosize=1;strokeColor=none;fillColor=none;" vertex="1" parent="1">
          <mxGeometry x="-1294.09" y="-580" width="170" height="30" as="geometry" />
        </mxCell>
        <mxCell id="NtosG1L_evyIxKAnBTzC-63" value="11f. .GetCourse(courseId)" style="text;html=1;align=center;verticalAlign=middle;resizable=0;points=[];autosize=1;strokeColor=none;fillColor=none;" vertex="1" parent="1">
          <mxGeometry x="-975" y="-580" width="170" height="30" as="geometry" />
        </mxCell>
        <mxCell id="NtosG1L_evyIxKAnBTzC-64" value="12f. .GetCourse(courseId)" style="text;html=1;align=center;verticalAlign=middle;resizable=0;points=[];autosize=1;strokeColor=none;fillColor=none;" vertex="1" parent="1">
          <mxGeometry x="-640" y="-580" width="170" height="30" as="geometry" />
        </mxCell>
        <mxCell id="NtosG1L_evyIxKAnBTzC-65" value="13f. SELECT * FROM course WHERE id = @course_id" style="text;html=1;align=center;verticalAlign=middle;resizable=0;points=[];autosize=1;strokeColor=none;fillColor=none;" vertex="1" parent="1">
          <mxGeometry x="-760" y="-310" width="320" height="30" as="geometry" />
        </mxCell>
        <mxCell id="NtosG1L_evyIxKAnBTzC-66" value="14f. Course" style="text;html=1;align=center;verticalAlign=middle;resizable=0;points=[];autosize=1;strokeColor=none;fillColor=none;" vertex="1" parent="1">
          <mxGeometry x="-380" y="-310" width="90" height="30" as="geometry" />
        </mxCell>
        <mxCell id="NtosG1L_evyIxKAnBTzC-67" value="15f. Course" style="text;html=1;align=center;verticalAlign=middle;resizable=0;points=[];autosize=1;strokeColor=none;fillColor=none;" vertex="1" parent="1">
          <mxGeometry x="-630" y="-450" width="90" height="30" as="geometry" />
        </mxCell>
        <mxCell id="NtosG1L_evyIxKAnBTzC-68" value="16f. Course" style="text;html=1;align=center;verticalAlign=middle;resizable=0;points=[];autosize=1;strokeColor=none;fillColor=none;" vertex="1" parent="1">
          <mxGeometry x="-975" y="-450" width="90" height="30" as="geometry" />
        </mxCell>
        <mxCell id="NtosG1L_evyIxKAnBTzC-69" value="17f.1. [Course == Error] 500 Internal Server Error" style="text;html=1;align=center;verticalAlign=middle;resizable=0;points=[];autosize=1;strokeColor=none;fillColor=none;" vertex="1" parent="1">
          <mxGeometry x="-1329.09" y="-360" width="300" height="30" as="geometry" />
        </mxCell>
        <mxCell id="NtosG1L_evyIxKAnBTzC-70" value="17f. 200 OK" style="text;html=1;align=center;verticalAlign=middle;resizable=0;points=[];autosize=1;strokeColor=none;fillColor=none;" vertex="1" parent="1">
          <mxGeometry x="-1330.9099999999999" y="-340" width="90" height="30" as="geometry" />
        </mxCell>
        <mxCell id="NtosG1L_evyIxKAnBTzC-71" value="18f.1. 500 Internal Server Error " style="text;html=1;align=center;verticalAlign=middle;resizable=0;points=[];autosize=1;strokeColor=none;fillColor=none;" vertex="1" parent="1">
          <mxGeometry x="-1660" y="-310" width="200" height="30" as="geometry" />
        </mxCell>
        <mxCell id="NtosG1L_evyIxKAnBTzC-72" value="19f.1. Show error = &quot;Failed to fetch course&quot;" style="text;html=1;align=center;verticalAlign=middle;resizable=0;points=[];autosize=1;strokeColor=none;fillColor=none;" vertex="1" parent="1">
          <mxGeometry x="-2015" y="-310" width="270" height="30" as="geometry" />
        </mxCell>
        <mxCell id="NtosG1L_evyIxKAnBTzC-73" value="18f. 200 OK" style="text;html=1;align=center;verticalAlign=middle;resizable=0;points=[];autosize=1;strokeColor=none;fillColor=none;" vertex="1" parent="1">
          <mxGeometry x="-1660" y="-290" width="90" height="30" as="geometry" />
        </mxCell>
        <mxCell id="NtosG1L_evyIxKAnBTzC-74" value="19f. Show Course Details" style="text;html=1;align=center;verticalAlign=middle;resizable=0;points=[];autosize=1;strokeColor=none;fillColor=none;" vertex="1" parent="1">
          <mxGeometry x="-2010" y="-290" width="160" height="30" as="geometry" />
        </mxCell>
        <mxCell id="NtosG1L_evyIxKAnBTzC-75" value="7. handleCreateQuizClick(courseId)" style="text;html=1;align=center;verticalAlign=middle;resizable=0;points=[];autosize=1;strokeColor=none;fillColor=none;" vertex="1" parent="1">
          <mxGeometry x="-2040" y="-580" width="230" height="30" as="geometry" />
        </mxCell>
        <mxCell id="NtosG1L_evyIxKAnBTzC-76" value="8. Show creation form" style="text;html=1;align=center;verticalAlign=middle;resizable=0;points=[];autosize=1;strokeColor=none;fillColor=none;" vertex="1" parent="1">
          <mxGeometry x="-2015" y="-270" width="150" height="30" as="geometry" />
        </mxCell>
        <mxCell id="NtosG1L_evyIxKAnBTzC-77" value="9. handleSelectQuizType()" style="text;html=1;align=center;verticalAlign=middle;resizable=0;points=[];autosize=1;strokeColor=none;fillColor=none;" vertex="1" parent="1">
          <mxGeometry x="-2035" y="-595" width="170" height="30" as="geometry" />
        </mxCell>
        <mxCell id="NtosG1L_evyIxKAnBTzC-78" value="10. Show quiz type options" style="text;html=1;align=center;verticalAlign=middle;resizable=0;points=[];autosize=1;strokeColor=none;fillColor=none;" vertex="1" parent="1">
          <mxGeometry x="-2020" y="-250" width="180" height="30" as="geometry" />
        </mxCell>
        <mxCell id="NtosG1L_evyIxKAnBTzC-79" value="11. handleSubmitQuizClick(courseId, content, quiz_type, requirement)" style="text;html=1;align=center;verticalAlign=middle;resizable=0;points=[];autosize=1;strokeColor=none;fillColor=none;" vertex="1" parent="1">
          <mxGeometry x="-2040" y="-610" width="430" height="30" as="geometry" />
        </mxCell>
        <mxCell id="NtosG1L_evyIxKAnBTzC-82" value="" style="endArrow=none;html=1;rounded=0;" edge="1" parent="1">
          <mxGeometry width="50" height="50" relative="1" as="geometry">
            <mxPoint x="-1740" y="-440" as="sourcePoint" />
            <mxPoint x="-1740" y="-479" as="targetPoint" />
          </mxGeometry>
        </mxCell>
        <mxCell id="NtosG1L_evyIxKAnBTzC-83" value="" style="endArrow=none;html=1;rounded=0;" edge="1" parent="1">
          <mxGeometry width="50" height="50" relative="1" as="geometry">
            <mxPoint x="-1740" y="-440" as="sourcePoint" />
            <mxPoint x="-1710" y="-440" as="targetPoint" />
          </mxGeometry>
        </mxCell>
        <mxCell id="NtosG1L_evyIxKAnBTzC-84" value="" style="endArrow=classic;html=1;rounded=0;entryX=0.77;entryY=1.043;entryDx=0;entryDy=0;entryPerimeter=0;" edge="1" parent="1" target="DVR4bQceARmdJa0iFLZY-2">
          <mxGeometry width="50" height="50" relative="1" as="geometry">
            <mxPoint x="-1710" y="-440" as="sourcePoint" />
            <mxPoint x="-1690" y="-460" as="targetPoint" />
          </mxGeometry>
        </mxCell>
        <mxCell id="NtosG1L_evyIxKAnBTzC-85" value="12. Validate quiz data" style="text;html=1;align=center;verticalAlign=middle;resizable=0;points=[];autosize=1;strokeColor=none;fillColor=none;" vertex="1" parent="1">
          <mxGeometry x="-1805" y="-440" width="150" height="30" as="geometry" />
        </mxCell>
        <mxCell id="NtosG1L_evyIxKAnBTzC-86" value="13g. [Invalid data] Show error &quot;Invalid input&quot;" style="text;html=1;align=center;verticalAlign=middle;resizable=0;points=[];autosize=1;strokeColor=none;fillColor=none;" vertex="1" parent="1">
          <mxGeometry x="-2015" y="-230" width="280" height="30" as="geometry" />
        </mxCell>
        <mxCell id="NtosG1L_evyIxKAnBTzC-87" value="14h. [Valid data] POST /api/quizzes (coursId, quiz_type, requirement)" style="text;html=1;align=center;verticalAlign=middle;resizable=0;points=[];autosize=1;strokeColor=none;fillColor=none;" vertex="1" parent="1">
          <mxGeometry x="-1665" y="-595" width="420" height="30" as="geometry" />
        </mxCell>
        <mxCell id="NtosG1L_evyIxKAnBTzC-88" value="15h. .Use(Middleware)" style="text;html=1;align=center;verticalAlign=middle;resizable=0;points=[];autosize=1;strokeColor=none;fillColor=none;" vertex="1" parent="1">
          <mxGeometry x="-1569.09" y="-120" width="150" height="30" as="geometry" />
        </mxCell>
        <mxCell id="NtosG1L_evyIxKAnBTzC-90" value="16h. [Unauthorized (401 Unauthorized)] 401 Unauthorized" style="text;html=1;align=center;verticalAlign=middle;resizable=0;points=[];autosize=1;strokeColor=none;fillColor=none;" vertex="1" parent="1">
          <mxGeometry x="-1370" y="-100" width="360" height="30" as="geometry" />
        </mxCell>
        <mxCell id="NtosG1L_evyIxKAnBTzC-91" value="16h. 401 Unauthorized" style="text;html=1;align=center;verticalAlign=middle;resizable=0;points=[];autosize=1;strokeColor=none;fillColor=none;" vertex="1" parent="1">
          <mxGeometry x="-1660" y="-270" width="150" height="30" as="geometry" />
        </mxCell>
        <mxCell id="NtosG1L_evyIxKAnBTzC-92" value="17h. Show error &quot;Please log in&quot;" style="text;html=1;align=center;verticalAlign=middle;resizable=0;points=[];autosize=1;strokeColor=none;fillColor=none;" vertex="1" parent="1">
          <mxGeometry x="-2020" y="-210" width="200" height="30" as="geometry" />
        </mxCell>
        <mxCell id="NtosG1L_evyIxKAnBTzC-93" value="16i. [Authorized] Proceed" style="text;html=1;align=center;verticalAlign=middle;resizable=0;points=[];autosize=1;strokeColor=none;fillColor=none;" vertex="1" parent="1">
          <mxGeometry x="-1369.09" y="-80" width="170" height="30" as="geometry" />
        </mxCell>
        <mxCell id="NtosG1L_evyIxKAnBTzC-94" value="17i. .CreateQuiz(courseId, content, quiz_type, requirements)" style="text;html=1;align=center;verticalAlign=middle;resizable=0;points=[];autosize=1;strokeColor=none;fillColor=none;" vertex="1" parent="1">
          <mxGeometry x="-1370" y="-610" width="370" height="30" as="geometry" />
        </mxCell>
        <mxCell id="NtosG1L_evyIxKAnBTzC-95" value="18i. .CreateQuiz(courseId, content, quiz_type, requirements)" style="text;html=1;align=center;verticalAlign=middle;resizable=0;points=[];autosize=1;strokeColor=none;fillColor=none;" vertex="1" parent="1">
          <mxGeometry x="-1010" y="-600" width="370" height="30" as="geometry" />
        </mxCell>
        <mxCell id="NtosG1L_evyIxKAnBTzC-96" value="19i. .CreateQuiz(courseId, content, quiz_type, requirements)" style="text;html=1;align=center;verticalAlign=middle;resizable=0;points=[];autosize=1;strokeColor=none;fillColor=none;" vertex="1" parent="1">
          <mxGeometry x="-640" y="-600" width="370" height="30" as="geometry" />
        </mxCell>
        <mxCell id="NtosG1L_evyIxKAnBTzC-97" value="&lt;div&gt;20f. INSERT INTO quizzes (course_id, content, quiz_type, requirements)&lt;/div&gt;&lt;div&gt;&amp;nbsp;VALUES (@course_id, @content, @quiz_type, @requirements)&lt;/div&gt;" style="text;html=1;align=center;verticalAlign=middle;resizable=0;points=[];autosize=1;strokeColor=none;fillColor=none;" vertex="1" parent="1">
          <mxGeometry x="-840" y="-290" width="430" height="40" as="geometry" />
        </mxCell>
        <mxCell id="wvM8alyxPZVezoopE0FX-1" value="&lt;div&gt;21f. Quiz&lt;br&gt;&lt;/div&gt;" style="text;html=1;align=center;verticalAlign=middle;resizable=0;points=[];autosize=1;strokeColor=none;fillColor=none;" vertex="1" parent="1">
          <mxGeometry x="-375" y="-290" width="70" height="30" as="geometry" />
        </mxCell>
        <mxCell id="wvM8alyxPZVezoopE0FX-2" value="&lt;div&gt;22f. Quiz&lt;br&gt;&lt;/div&gt;" style="text;html=1;align=center;verticalAlign=middle;resizable=0;points=[];autosize=1;strokeColor=none;fillColor=none;" vertex="1" parent="1">
          <mxGeometry x="-625" y="-430" width="70" height="30" as="geometry" />
        </mxCell>
        <mxCell id="wvM8alyxPZVezoopE0FX-3" value="&lt;div&gt;23f. Quiz&lt;br&gt;&lt;/div&gt;" style="text;html=1;align=center;verticalAlign=middle;resizable=0;points=[];autosize=1;strokeColor=none;fillColor=none;" vertex="1" parent="1">
          <mxGeometry x="-970" y="-430" width="70" height="30" as="geometry" />
        </mxCell>
        <mxCell id="wvM8alyxPZVezoopE0FX-5" value="24f.1. [Quiz == Error] 500 Internal Server Error" style="text;html=1;align=center;verticalAlign=middle;resizable=0;points=[];autosize=1;strokeColor=none;fillColor=none;" vertex="1" parent="1">
          <mxGeometry x="-1330" y="-320" width="290" height="30" as="geometry" />
        </mxCell>
        <mxCell id="wvM8alyxPZVezoopE0FX-6" value="24f. 201 Created" style="text;html=1;align=center;verticalAlign=middle;resizable=0;points=[];autosize=1;strokeColor=none;fillColor=none;" vertex="1" parent="1">
          <mxGeometry x="-1329.09" y="-300" width="110" height="30" as="geometry" />
        </mxCell>
        <mxCell id="wvM8alyxPZVezoopE0FX-7" value="25f.1. 500 Internal Server Error " style="text;html=1;align=center;verticalAlign=middle;resizable=0;points=[];autosize=1;strokeColor=none;fillColor=none;" vertex="1" parent="1">
          <mxGeometry x="-1660" y="-250" width="200" height="30" as="geometry" />
        </mxCell>
        <mxCell id="wvM8alyxPZVezoopE0FX-8" value="26f.1. Show error &quot;Quiz creation failed&quot; " style="text;html=1;align=center;verticalAlign=middle;resizable=0;points=[];autosize=1;strokeColor=none;fillColor=none;" vertex="1" parent="1">
          <mxGeometry x="-2020" y="-190" width="250" height="30" as="geometry" />
        </mxCell>
        <mxCell id="wvM8alyxPZVezoopE0FX-9" value="25f. 201 Created" style="text;html=1;align=center;verticalAlign=middle;resizable=0;points=[];autosize=1;strokeColor=none;fillColor=none;" vertex="1" parent="1">
          <mxGeometry x="-1615" y="-230" width="110" height="30" as="geometry" />
        </mxCell>
        <mxCell id="wvM8alyxPZVezoopE0FX-10" value="26f. Show success &quot;Quiz created&quot; " style="text;html=1;align=center;verticalAlign=middle;resizable=0;points=[];autosize=1;strokeColor=none;fillColor=none;" vertex="1" parent="1">
          <mxGeometry x="-2020" y="-170" width="210" height="30" as="geometry" />
        </mxCell>
      </root>
    </mxGraphModel>
  </diagram>
  <diagram id="X20Uy9Cm9011YRnBgMPM" name="Page-2">
    <mxGraphModel dx="1834" dy="778" grid="1" gridSize="10" guides="1" tooltips="1" connect="1" arrows="1" fold="1" page="0" pageScale="1" pageWidth="850" pageHeight="1100" math="0" shadow="0">
      <root>
        <mxCell id="0" />
        <mxCell id="1" parent="0" />
        <mxCell id="TqN-iCekcJ9_JR3Z6LSP-1" value="User" style="shape=umlActor;verticalLabelPosition=bottom;verticalAlign=top;html=1;outlineConnect=0;" vertex="1" parent="1">
          <mxGeometry x="-360" y="145" width="30" height="60" as="geometry" />
        </mxCell>
        <mxCell id="TqN-iCekcJ9_JR3Z6LSP-2" style="edgeStyle=orthogonalEdgeStyle;rounded=0;orthogonalLoop=1;jettySize=auto;html=1;dashed=1;" edge="1" parent="1">
          <mxGeometry relative="1" as="geometry">
            <mxPoint x="-70" y="189.7814942528736" as="sourcePoint" />
            <mxPoint x="-280" y="190" as="targetPoint" />
            <Array as="points">
              <mxPoint x="-170" y="189.77" />
              <mxPoint x="-170" y="189.77" />
            </Array>
          </mxGeometry>
        </mxCell>
        <mxCell id="TqN-iCekcJ9_JR3Z6LSP-3" value="Frontend" style="rounded=0;whiteSpace=wrap;html=1;" vertex="1" parent="1">
          <mxGeometry x="-30" y="160" width="120" height="40" as="geometry" />
        </mxCell>
        <mxCell id="TqN-iCekcJ9_JR3Z6LSP-4" value="Router" style="rounded=0;whiteSpace=wrap;html=1;" vertex="1" parent="1">
          <mxGeometry x="240" y="160" width="120" height="40" as="geometry" />
        </mxCell>
        <mxCell id="TqN-iCekcJ9_JR3Z6LSP-5" value="1.GET /api/course" style="text;html=1;align=center;verticalAlign=middle;resizable=0;points=[];autosize=1;strokeColor=none;fillColor=none;" vertex="1" parent="1">
          <mxGeometry x="105" y="140" width="120" height="30" as="geometry" />
        </mxCell>
        <mxCell id="TqN-iCekcJ9_JR3Z6LSP-6" value="Middleware" style="rounded=0;whiteSpace=wrap;html=1;" vertex="1" parent="1">
          <mxGeometry x="240" y="510" width="120" height="30" as="geometry" />
        </mxCell>
        <mxCell id="TqN-iCekcJ9_JR3Z6LSP-7" value="Controller" style="rounded=0;whiteSpace=wrap;html=1;" vertex="1" parent="1">
          <mxGeometry x="555" y="160" width="120" height="40" as="geometry" />
        </mxCell>
        <mxCell id="TqN-iCekcJ9_JR3Z6LSP-8" value="Service" style="rounded=0;whiteSpace=wrap;html=1;" vertex="1" parent="1">
          <mxGeometry x="830" y="160" width="120" height="40" as="geometry" />
        </mxCell>
        <mxCell id="TqN-iCekcJ9_JR3Z6LSP-9" value="Repository" style="rounded=0;whiteSpace=wrap;html=1;" vertex="1" parent="1">
          <mxGeometry x="1120" y="160" width="120" height="40" as="geometry" />
        </mxCell>
        <mxCell id="TqN-iCekcJ9_JR3Z6LSP-10" value="Database" style="rounded=0;whiteSpace=wrap;html=1;" vertex="1" parent="1">
          <mxGeometry x="1120" y="390" width="120" height="30" as="geometry" />
        </mxCell>
        <mxCell id="TqN-iCekcJ9_JR3Z6LSP-11" value="&amp;nbsp;" style="text;html=1;align=center;verticalAlign=middle;resizable=0;points=[];autosize=1;strokeColor=none;fillColor=none;" vertex="1" parent="1">
          <mxGeometry x="445" y="205" width="30" height="30" as="geometry" />
        </mxCell>
        <mxCell id="TqN-iCekcJ9_JR3Z6LSP-12" value="&amp;nbsp;" style="text;html=1;align=center;verticalAlign=middle;resizable=0;points=[];autosize=1;strokeColor=none;fillColor=none;" vertex="1" parent="1">
          <mxGeometry x="-125" y="230" width="30" height="30" as="geometry" />
        </mxCell>
        <mxCell id="TqN-iCekcJ9_JR3Z6LSP-13" value="" style="endArrow=classic;html=1;rounded=0;" edge="1" parent="1">
          <mxGeometry width="50" height="50" relative="1" as="geometry">
            <mxPoint x="-280" y="163" as="sourcePoint" />
            <mxPoint x="-75" y="162.88" as="targetPoint" />
          </mxGeometry>
        </mxCell>
        <mxCell id="TqN-iCekcJ9_JR3Z6LSP-14" value="" style="endArrow=none;html=1;rounded=0;entryX=-0.013;entryY=0.373;entryDx=0;entryDy=0;entryPerimeter=0;" edge="1" parent="1" source="TqN-iCekcJ9_JR3Z6LSP-1" target="TqN-iCekcJ9_JR3Z6LSP-3">
          <mxGeometry width="50" height="50" relative="1" as="geometry">
            <mxPoint x="-130" y="230" as="sourcePoint" />
            <mxPoint x="-80" y="180" as="targetPoint" />
          </mxGeometry>
        </mxCell>
        <mxCell id="TqN-iCekcJ9_JR3Z6LSP-15" value="" style="endArrow=none;html=1;rounded=0;exitX=1;exitY=0.5;exitDx=0;exitDy=0;entryX=0;entryY=0.5;entryDx=0;entryDy=0;" edge="1" parent="1" source="TqN-iCekcJ9_JR3Z6LSP-3" target="TqN-iCekcJ9_JR3Z6LSP-4">
          <mxGeometry width="50" height="50" relative="1" as="geometry">
            <mxPoint x="150" y="250" as="sourcePoint" />
            <mxPoint x="200" y="200" as="targetPoint" />
          </mxGeometry>
        </mxCell>
        <mxCell id="TqN-iCekcJ9_JR3Z6LSP-16" value="" style="endArrow=none;html=1;rounded=0;exitX=1;exitY=0.5;exitDx=0;exitDy=0;" edge="1" parent="1" source="TqN-iCekcJ9_JR3Z6LSP-4">
          <mxGeometry width="50" height="50" relative="1" as="geometry">
            <mxPoint x="410" y="250" as="sourcePoint" />
            <mxPoint x="554" y="180" as="targetPoint" />
          </mxGeometry>
        </mxCell>
        <mxCell id="TqN-iCekcJ9_JR3Z6LSP-17" value="" style="endArrow=none;html=1;rounded=0;entryX=0.5;entryY=1.005;entryDx=0;entryDy=0;entryPerimeter=0;exitX=0.5;exitY=0;exitDx=0;exitDy=0;" edge="1" parent="1" source="TqN-iCekcJ9_JR3Z6LSP-10" target="TqN-iCekcJ9_JR3Z6LSP-9">
          <mxGeometry width="50" height="50" relative="1" as="geometry">
            <mxPoint x="1110" y="270" as="sourcePoint" />
            <mxPoint x="1160" y="220" as="targetPoint" />
          </mxGeometry>
        </mxCell>
        <mxCell id="TqN-iCekcJ9_JR3Z6LSP-18" value="" style="endArrow=none;html=1;rounded=0;exitX=1;exitY=0.5;exitDx=0;exitDy=0;entryX=0;entryY=0.5;entryDx=0;entryDy=0;" edge="1" parent="1" source="TqN-iCekcJ9_JR3Z6LSP-8" target="TqN-iCekcJ9_JR3Z6LSP-9">
          <mxGeometry width="50" height="50" relative="1" as="geometry">
            <mxPoint x="1100" y="240" as="sourcePoint" />
            <mxPoint x="1150" y="190" as="targetPoint" />
          </mxGeometry>
        </mxCell>
        <mxCell id="TqN-iCekcJ9_JR3Z6LSP-19" value="" style="endArrow=none;html=1;rounded=0;exitX=1;exitY=0.5;exitDx=0;exitDy=0;entryX=0;entryY=0.5;entryDx=0;entryDy=0;" edge="1" parent="1" target="TqN-iCekcJ9_JR3Z6LSP-8">
          <mxGeometry width="50" height="50" relative="1" as="geometry">
            <mxPoint x="675" y="179.77" as="sourcePoint" />
            <mxPoint x="805" y="179.77" as="targetPoint" />
          </mxGeometry>
        </mxCell>
        <mxCell id="TqN-iCekcJ9_JR3Z6LSP-20" value="" style="endArrow=classic;html=1;rounded=0;" edge="1" parent="1">
          <mxGeometry width="50" height="50" relative="1" as="geometry">
            <mxPoint x="120" y="170" as="sourcePoint" />
            <mxPoint x="210" y="170" as="targetPoint" />
          </mxGeometry>
        </mxCell>
        <mxCell id="TqN-iCekcJ9_JR3Z6LSP-21" value="" style="endArrow=classic;html=1;rounded=0;dashed=1;" edge="1" parent="1">
          <mxGeometry width="50" height="50" relative="1" as="geometry">
            <mxPoint x="210" y="190" as="sourcePoint" />
            <mxPoint x="120" y="190" as="targetPoint" />
          </mxGeometry>
        </mxCell>
        <mxCell id="TqN-iCekcJ9_JR3Z6LSP-22" value="" style="endArrow=classic;html=1;rounded=0;" edge="1" parent="1">
          <mxGeometry width="50" height="50" relative="1" as="geometry">
            <mxPoint x="385" y="170" as="sourcePoint" />
            <mxPoint x="530" y="170" as="targetPoint" />
          </mxGeometry>
        </mxCell>
        <mxCell id="TqN-iCekcJ9_JR3Z6LSP-23" value="" style="endArrow=classic;html=1;rounded=0;dashed=1;" edge="1" parent="1">
          <mxGeometry width="50" height="50" relative="1" as="geometry">
            <mxPoint x="520" y="193" as="sourcePoint" />
            <mxPoint x="385" y="192.76" as="targetPoint" />
          </mxGeometry>
        </mxCell>
        <mxCell id="TqN-iCekcJ9_JR3Z6LSP-24" value="" style="endArrow=classic;html=1;rounded=0;" edge="1" parent="1">
          <mxGeometry width="50" height="50" relative="1" as="geometry">
            <mxPoint x="690" y="170" as="sourcePoint" />
            <mxPoint x="820" y="170" as="targetPoint" />
          </mxGeometry>
        </mxCell>
        <mxCell id="TqN-iCekcJ9_JR3Z6LSP-25" value="" style="endArrow=classic;html=1;rounded=0;dashed=1;" edge="1" parent="1">
          <mxGeometry width="50" height="50" relative="1" as="geometry">
            <mxPoint x="810" y="190.24" as="sourcePoint" />
            <mxPoint x="690" y="190" as="targetPoint" />
          </mxGeometry>
        </mxCell>
        <mxCell id="TqN-iCekcJ9_JR3Z6LSP-26" value="" style="endArrow=classic;html=1;rounded=0;" edge="1" parent="1">
          <mxGeometry width="50" height="50" relative="1" as="geometry">
            <mxPoint x="970" y="169.76" as="sourcePoint" />
            <mxPoint x="1100" y="169.76" as="targetPoint" />
          </mxGeometry>
        </mxCell>
        <mxCell id="TqN-iCekcJ9_JR3Z6LSP-27" value="" style="endArrow=classic;html=1;rounded=0;dashed=1;" edge="1" parent="1">
          <mxGeometry width="50" height="50" relative="1" as="geometry">
            <mxPoint x="1090" y="190" as="sourcePoint" />
            <mxPoint x="970" y="189.76" as="targetPoint" />
          </mxGeometry>
        </mxCell>
        <mxCell id="TqN-iCekcJ9_JR3Z6LSP-28" value="&amp;nbsp;" style="text;whiteSpace=wrap;html=1;" vertex="1" parent="1">
          <mxGeometry x="930" y="120" width="40" height="40" as="geometry" />
        </mxCell>
        <mxCell id="TqN-iCekcJ9_JR3Z6LSP-29" value="" style="endArrow=classic;html=1;rounded=0;" edge="1" parent="1">
          <mxGeometry width="50" height="50" relative="1" as="geometry">
            <mxPoint x="1160" y="220" as="sourcePoint" />
            <mxPoint x="1160" y="370" as="targetPoint" />
          </mxGeometry>
        </mxCell>
        <mxCell id="TqN-iCekcJ9_JR3Z6LSP-30" value="" style="endArrow=classic;html=1;rounded=0;dashed=1;" edge="1" parent="1">
          <mxGeometry width="50" height="50" relative="1" as="geometry">
            <mxPoint x="1200" y="370" as="sourcePoint" />
            <mxPoint x="1200" y="220" as="targetPoint" />
          </mxGeometry>
        </mxCell>
        <mxCell id="TqN-iCekcJ9_JR3Z6LSP-31" value="" style="endArrow=none;html=1;rounded=0;entryX=0.574;entryY=0.974;entryDx=0;entryDy=0;entryPerimeter=0;exitX=0.552;exitY=-0.085;exitDx=0;exitDy=0;exitPerimeter=0;" edge="1" parent="1" source="TqN-iCekcJ9_JR3Z6LSP-6">
          <mxGeometry width="50" height="50" relative="1" as="geometry">
            <mxPoint x="308" y="370" as="sourcePoint" />
            <mxPoint x="308.8800000000001" y="199.99999999999997" as="targetPoint" />
            <Array as="points">
              <mxPoint x="309" y="241.04" />
            </Array>
          </mxGeometry>
        </mxCell>
        <mxCell id="TqN-iCekcJ9_JR3Z6LSP-32" value="" style="endArrow=classic;html=1;rounded=0;entryX=0.996;entryY=0.657;entryDx=0;entryDy=0;entryPerimeter=0;" edge="1" parent="1">
          <mxGeometry width="50" height="50" relative="1" as="geometry">
            <mxPoint x="300" y="240" as="sourcePoint" />
            <mxPoint x="299.4399999999996" y="429.71000000000004" as="targetPoint" />
          </mxGeometry>
        </mxCell>
        <mxCell id="TqN-iCekcJ9_JR3Z6LSP-33" value="" style="endArrow=classic;html=1;rounded=0;dashed=1;" edge="1" parent="1">
          <mxGeometry width="50" height="50" relative="1" as="geometry">
            <mxPoint x="320" y="430" as="sourcePoint" />
            <mxPoint x="320" y="240" as="targetPoint" />
          </mxGeometry>
        </mxCell>
        <mxCell id="TqN-iCekcJ9_JR3Z6LSP-34" value="User" style="shape=umlActor;verticalLabelPosition=bottom;verticalAlign=top;html=1;outlineConnect=0;" vertex="1" parent="1">
          <mxGeometry x="-360" y="145" width="30" height="60" as="geometry" />
        </mxCell>
        <mxCell id="TqN-iCekcJ9_JR3Z6LSP-35" style="edgeStyle=orthogonalEdgeStyle;rounded=0;orthogonalLoop=1;jettySize=auto;html=1;dashed=1;" edge="1" parent="1">
          <mxGeometry relative="1" as="geometry">
            <mxPoint x="-70" y="189.7814942528736" as="sourcePoint" />
            <mxPoint x="-280" y="190" as="targetPoint" />
            <Array as="points">
              <mxPoint x="-170" y="189.77" />
              <mxPoint x="-170" y="189.77" />
            </Array>
          </mxGeometry>
        </mxCell>
        <mxCell id="TqN-iCekcJ9_JR3Z6LSP-36" value="Frontend" style="rounded=0;whiteSpace=wrap;html=1;" vertex="1" parent="1">
          <mxGeometry x="-30" y="160" width="120" height="40" as="geometry" />
        </mxCell>
        <mxCell id="TqN-iCekcJ9_JR3Z6LSP-37" value="&amp;nbsp;" style="text;html=1;align=center;verticalAlign=middle;resizable=0;points=[];autosize=1;strokeColor=none;fillColor=none;" vertex="1" parent="1">
          <mxGeometry x="-125" y="230" width="30" height="30" as="geometry" />
        </mxCell>
        <mxCell id="TqN-iCekcJ9_JR3Z6LSP-38" value="" style="endArrow=classic;html=1;rounded=0;" edge="1" parent="1">
          <mxGeometry width="50" height="50" relative="1" as="geometry">
            <mxPoint x="-280" y="163" as="sourcePoint" />
            <mxPoint x="-75" y="162.88" as="targetPoint" />
          </mxGeometry>
        </mxCell>
        <mxCell id="TqN-iCekcJ9_JR3Z6LSP-39" value="" style="endArrow=none;html=1;rounded=0;entryX=-0.013;entryY=0.373;entryDx=0;entryDy=0;entryPerimeter=0;" edge="1" parent="1" source="TqN-iCekcJ9_JR3Z6LSP-34" target="TqN-iCekcJ9_JR3Z6LSP-36">
          <mxGeometry width="50" height="50" relative="1" as="geometry">
            <mxPoint x="-130" y="230" as="sourcePoint" />
            <mxPoint x="-80" y="180" as="targetPoint" />
          </mxGeometry>
        </mxCell>
        <mxCell id="TqN-iCekcJ9_JR3Z6LSP-40" value="" style="endArrow=none;html=1;rounded=0;exitX=1;exitY=0.5;exitDx=0;exitDy=0;entryX=0;entryY=0.5;entryDx=0;entryDy=0;" edge="1" parent="1" source="TqN-iCekcJ9_JR3Z6LSP-36">
          <mxGeometry width="50" height="50" relative="1" as="geometry">
            <mxPoint x="150" y="250" as="sourcePoint" />
            <mxPoint x="240" y="180" as="targetPoint" />
          </mxGeometry>
        </mxCell>
        <mxCell id="TqN-iCekcJ9_JR3Z6LSP-41" value="" style="endArrow=classic;html=1;rounded=0;" edge="1" parent="1">
          <mxGeometry width="50" height="50" relative="1" as="geometry">
            <mxPoint x="120" y="170" as="sourcePoint" />
            <mxPoint x="210" y="170" as="targetPoint" />
          </mxGeometry>
        </mxCell>
        <mxCell id="TqN-iCekcJ9_JR3Z6LSP-42" value="" style="endArrow=classic;html=1;rounded=0;dashed=1;" edge="1" parent="1">
          <mxGeometry width="50" height="50" relative="1" as="geometry">
            <mxPoint x="210" y="190" as="sourcePoint" />
            <mxPoint x="120" y="190" as="targetPoint" />
          </mxGeometry>
        </mxCell>
        <mxCell id="TqN-iCekcJ9_JR3Z6LSP-43" value="" style="endArrow=none;html=1;rounded=0;entryX=0.574;entryY=0.974;entryDx=0;entryDy=0;entryPerimeter=0;exitX=0.552;exitY=-0.085;exitDx=0;exitDy=0;exitPerimeter=0;" edge="1" parent="1">
          <mxGeometry width="50" height="50" relative="1" as="geometry">
            <mxPoint x="306" y="507" as="sourcePoint" />
            <mxPoint x="308.8800000000001" y="199.99999999999997" as="targetPoint" />
            <Array as="points">
              <mxPoint x="309" y="241.04" />
            </Array>
          </mxGeometry>
        </mxCell>
        <mxCell id="TqN-iCekcJ9_JR3Z6LSP-44" value="" style="endArrow=classic;html=1;rounded=0;dashed=1;" edge="1" parent="1">
          <mxGeometry width="50" height="50" relative="1" as="geometry">
            <mxPoint x="320" y="430" as="sourcePoint" />
            <mxPoint x="320" y="240" as="targetPoint" />
          </mxGeometry>
        </mxCell>
        <mxCell id="TqN-iCekcJ9_JR3Z6LSP-45" value="2. .Use(Middleware)" style="text;html=1;align=center;verticalAlign=middle;resizable=0;points=[];autosize=1;strokeColor=none;fillColor=none;" vertex="1" parent="1">
          <mxGeometry x="140" y="390" width="140" height="30" as="geometry" />
        </mxCell>
        <mxCell id="TqN-iCekcJ9_JR3Z6LSP-46" value="3a. [Unauthorized (401 Unauthorized)] 401 Unauthorized" style="text;html=1;align=center;verticalAlign=middle;resizable=0;points=[];autosize=1;strokeColor=none;fillColor=none;" vertex="1" parent="1">
          <mxGeometry x="325" y="440" width="350" height="30" as="geometry" />
        </mxCell>
        <mxCell id="TqN-iCekcJ9_JR3Z6LSP-47" value="4a.&amp;nbsp; 401 Unauthorized" style="text;html=1;align=center;verticalAlign=middle;resizable=0;points=[];autosize=1;strokeColor=none;fillColor=none;" vertex="1" parent="1">
          <mxGeometry x="95" y="205" width="150" height="30" as="geometry" />
        </mxCell>
        <mxCell id="TqN-iCekcJ9_JR3Z6LSP-48" value="5a.&amp;nbsp; Show error &quot;Please log in&quot;" style="text;html=1;align=center;verticalAlign=middle;resizable=0;points=[];autosize=1;strokeColor=none;fillColor=none;" vertex="1" parent="1">
          <mxGeometry x="-304" y="205" width="190" height="30" as="geometry" />
        </mxCell>
        <mxCell id="TqN-iCekcJ9_JR3Z6LSP-49" value="3b. [Authorized] Proceed" style="text;html=1;align=center;verticalAlign=middle;resizable=0;points=[];autosize=1;strokeColor=none;fillColor=none;" vertex="1" parent="1">
          <mxGeometry x="325" y="420" width="170" height="30" as="geometry" />
        </mxCell>
        <mxCell id="TqN-iCekcJ9_JR3Z6LSP-50" value="4b. .GetAllCourses()" style="text;html=1;align=center;verticalAlign=middle;resizable=0;points=[];autosize=1;strokeColor=none;fillColor=none;" vertex="1" parent="1">
          <mxGeometry x="390" y="140" width="130" height="30" as="geometry" />
        </mxCell>
        <mxCell id="TqN-iCekcJ9_JR3Z6LSP-51" value="5b. .GetAllCourses()" style="text;html=1;align=center;verticalAlign=middle;resizable=0;points=[];autosize=1;strokeColor=none;fillColor=none;" vertex="1" parent="1">
          <mxGeometry x="690" y="140" width="130" height="30" as="geometry" />
        </mxCell>
        <mxCell id="TqN-iCekcJ9_JR3Z6LSP-52" value="6b. .GetAllCourses()" style="text;html=1;align=center;verticalAlign=middle;resizable=0;points=[];autosize=1;strokeColor=none;fillColor=none;" vertex="1" parent="1">
          <mxGeometry x="970" y="140" width="130" height="30" as="geometry" />
        </mxCell>
        <mxCell id="TqN-iCekcJ9_JR3Z6LSP-53" value="7b. SELECT * FROM courses WHERE owner_id = @user_id" style="text;html=1;align=center;verticalAlign=middle;resizable=0;points=[];autosize=1;strokeColor=none;fillColor=none;" vertex="1" parent="1">
          <mxGeometry x="810" y="340" width="350" height="30" as="geometry" />
        </mxCell>
        <mxCell id="TqN-iCekcJ9_JR3Z6LSP-54" value="8b. Courses" style="text;html=1;align=center;verticalAlign=middle;resizable=0;points=[];autosize=1;strokeColor=none;fillColor=none;" vertex="1" parent="1">
          <mxGeometry x="1210" y="340" width="90" height="30" as="geometry" />
        </mxCell>
        <mxCell id="TqN-iCekcJ9_JR3Z6LSP-55" value="9b. Courses" style="text;html=1;align=center;verticalAlign=middle;resizable=0;points=[];autosize=1;strokeColor=none;fillColor=none;" vertex="1" parent="1">
          <mxGeometry x="980" y="190" width="90" height="30" as="geometry" />
        </mxCell>
        <mxCell id="TqN-iCekcJ9_JR3Z6LSP-56" value="10b. Courses" style="text;html=1;align=center;verticalAlign=middle;resizable=0;points=[];autosize=1;strokeColor=none;fillColor=none;" vertex="1" parent="1">
          <mxGeometry x="705" y="190" width="100" height="30" as="geometry" />
        </mxCell>
        <mxCell id="TqN-iCekcJ9_JR3Z6LSP-57" value="&lt;div&gt;11b.1. [Courses == Error] 500 Internet Server Error&lt;br&gt;&lt;/div&gt;" style="text;html=1;align=center;verticalAlign=middle;resizable=0;points=[];autosize=1;strokeColor=none;fillColor=none;" vertex="1" parent="1">
          <mxGeometry x="350" y="210" width="310" height="30" as="geometry" />
        </mxCell>
        <mxCell id="TqN-iCekcJ9_JR3Z6LSP-58" value="&lt;div&gt;12b.1. 500 Internet Server Error&lt;br&gt;&lt;/div&gt;" style="text;html=1;align=center;verticalAlign=middle;resizable=0;points=[];autosize=1;strokeColor=none;fillColor=none;" vertex="1" parent="1">
          <mxGeometry x="90" y="220" width="210" height="30" as="geometry" />
        </mxCell>
        <mxCell id="TqN-iCekcJ9_JR3Z6LSP-59" value="13b.1 Show error &quot;Failed to fetch courses&quot;" style="text;html=1;align=center;verticalAlign=middle;resizable=0;points=[];autosize=1;strokeColor=none;fillColor=none;" vertex="1" parent="1">
          <mxGeometry x="-304" y="220" width="260" height="30" as="geometry" />
        </mxCell>
        <mxCell id="TqN-iCekcJ9_JR3Z6LSP-60" value="&lt;div&gt;11b.2. [Courses == Null] 404 Not Found&lt;br&gt;&lt;/div&gt;" style="text;html=1;align=center;verticalAlign=middle;resizable=0;points=[];autosize=1;strokeColor=none;fillColor=none;" vertex="1" parent="1">
          <mxGeometry x="350" y="225" width="240" height="30" as="geometry" />
        </mxCell>
        <mxCell id="TqN-iCekcJ9_JR3Z6LSP-61" value="&lt;div&gt;12b.2. 404 Not Found&lt;br&gt;&lt;/div&gt;" style="text;html=1;align=center;verticalAlign=middle;resizable=0;points=[];autosize=1;strokeColor=none;fillColor=none;" vertex="1" parent="1">
          <mxGeometry x="95" y="235" width="140" height="30" as="geometry" />
        </mxCell>
        <mxCell id="TqN-iCekcJ9_JR3Z6LSP-62" value="13b.2 Show error &quot;Courses not found&quot;" style="text;html=1;align=center;verticalAlign=middle;resizable=0;points=[];autosize=1;strokeColor=none;fillColor=none;" vertex="1" parent="1">
          <mxGeometry x="-304" y="235" width="240" height="30" as="geometry" />
        </mxCell>
        <mxCell id="TqN-iCekcJ9_JR3Z6LSP-63" value="&lt;div&gt;11b. 200 OK&lt;br&gt;&lt;/div&gt;" style="text;html=1;align=center;verticalAlign=middle;resizable=0;points=[];autosize=1;strokeColor=none;fillColor=none;" vertex="1" parent="1">
          <mxGeometry x="350" y="240" width="90" height="30" as="geometry" />
        </mxCell>
        <mxCell id="TqN-iCekcJ9_JR3Z6LSP-64" value="&lt;div&gt;12b. 200 OK&lt;br&gt;&lt;/div&gt;" style="text;html=1;align=center;verticalAlign=middle;resizable=0;points=[];autosize=1;strokeColor=none;fillColor=none;" vertex="1" parent="1">
          <mxGeometry x="95" y="250" width="90" height="30" as="geometry" />
        </mxCell>
        <mxCell id="TqN-iCekcJ9_JR3Z6LSP-65" value="13b Show courses list" style="text;html=1;align=center;verticalAlign=middle;resizable=0;points=[];autosize=1;strokeColor=none;fillColor=none;" vertex="1" parent="1">
          <mxGeometry x="-304" y="250" width="150" height="30" as="geometry" />
        </mxCell>
        <mxCell id="TqN-iCekcJ9_JR3Z6LSP-66" value="3. [opt] [User selects a courses] .handleCpursesClick(coursedId)" style="text;html=1;align=center;verticalAlign=middle;resizable=0;points=[];autosize=1;strokeColor=none;fillColor=none;" vertex="1" parent="1">
          <mxGeometry x="-350" y="115" width="380" height="30" as="geometry" />
        </mxCell>
        <mxCell id="TqN-iCekcJ9_JR3Z6LSP-67" value="4. GET/api/courses/{courseId}" style="text;html=1;align=center;verticalAlign=middle;resizable=0;points=[];autosize=1;strokeColor=none;fillColor=none;" vertex="1" parent="1">
          <mxGeometry x="70" y="125" width="190" height="30" as="geometry" />
        </mxCell>
        <mxCell id="TqN-iCekcJ9_JR3Z6LSP-68" value="5. .Use(Middleware)" style="text;html=1;align=center;verticalAlign=middle;resizable=0;points=[];autosize=1;strokeColor=none;fillColor=none;" vertex="1" parent="1">
          <mxGeometry x="140" y="410" width="140" height="30" as="geometry" />
        </mxCell>
        <mxCell id="TqN-iCekcJ9_JR3Z6LSP-69" value="6c. [Unauthorized (401 Unauthorized)] 401 Unauthorized" style="text;html=1;align=center;verticalAlign=middle;resizable=0;points=[];autosize=1;strokeColor=none;fillColor=none;" vertex="1" parent="1">
          <mxGeometry x="325" y="400" width="350" height="30" as="geometry" />
        </mxCell>
        <mxCell id="TqN-iCekcJ9_JR3Z6LSP-70" value="7c.&amp;nbsp; 401 Unauthorized" style="text;html=1;align=center;verticalAlign=middle;resizable=0;points=[];autosize=1;strokeColor=none;fillColor=none;" vertex="1" parent="1">
          <mxGeometry x="95" y="265" width="150" height="30" as="geometry" />
        </mxCell>
        <mxCell id="TqN-iCekcJ9_JR3Z6LSP-71" value="8c. Show error &quot;Please log in&quot;" style="text;html=1;align=center;verticalAlign=middle;resizable=0;points=[];autosize=1;strokeColor=none;fillColor=none;" vertex="1" parent="1">
          <mxGeometry x="-290" y="265" width="190" height="30" as="geometry" />
        </mxCell>
        <mxCell id="TqN-iCekcJ9_JR3Z6LSP-72" value="6d. [Authorized] Proceed" style="text;html=1;align=center;verticalAlign=middle;resizable=0;points=[];autosize=1;strokeColor=none;fillColor=none;" vertex="1" parent="1">
          <mxGeometry x="325" y="380" width="170" height="30" as="geometry" />
        </mxCell>
        <mxCell id="TqN-iCekcJ9_JR3Z6LSP-73" value="7d. .GetQuizzes(courseId)" style="text;html=1;align=center;verticalAlign=middle;resizable=0;points=[];autosize=1;strokeColor=none;fillColor=none;" vertex="1" parent="1">
          <mxGeometry x="375" y="125" width="170" height="30" as="geometry" />
        </mxCell>
        <mxCell id="TqN-iCekcJ9_JR3Z6LSP-74" value="8d. .GetQuizzes(courseId)" style="text;html=1;align=center;verticalAlign=middle;resizable=0;points=[];autosize=1;strokeColor=none;fillColor=none;" vertex="1" parent="1">
          <mxGeometry x="670" y="125" width="170" height="30" as="geometry" />
        </mxCell>
        <mxCell id="TqN-iCekcJ9_JR3Z6LSP-75" value="9d. .GetQuizzes(courseId)" style="text;html=1;align=center;verticalAlign=middle;resizable=0;points=[];autosize=1;strokeColor=none;fillColor=none;" vertex="1" parent="1">
          <mxGeometry x="950" y="125" width="170" height="30" as="geometry" />
        </mxCell>
        <mxCell id="TqN-iCekcJ9_JR3Z6LSP-76" value="10d. SELECT * FROM quizzes WHERE course_id = @course_id" style="text;html=1;align=center;verticalAlign=middle;resizable=0;points=[];autosize=1;strokeColor=none;fillColor=none;" vertex="1" parent="1">
          <mxGeometry x="810" y="320" width="370" height="30" as="geometry" />
        </mxCell>
        <mxCell id="TqN-iCekcJ9_JR3Z6LSP-77" value="11d. Quizzes" style="text;html=1;align=center;verticalAlign=middle;resizable=0;points=[];autosize=1;strokeColor=none;fillColor=none;" vertex="1" parent="1">
          <mxGeometry x="1210" y="320" width="90" height="30" as="geometry" />
        </mxCell>
        <mxCell id="TqN-iCekcJ9_JR3Z6LSP-78" value="12d. Quizzes" style="text;html=1;align=center;verticalAlign=middle;resizable=0;points=[];autosize=1;strokeColor=none;fillColor=none;" vertex="1" parent="1">
          <mxGeometry x="980" y="205" width="90" height="30" as="geometry" />
        </mxCell>
        <mxCell id="TqN-iCekcJ9_JR3Z6LSP-79" value="13d. Quizzes" style="text;html=1;align=center;verticalAlign=middle;resizable=0;points=[];autosize=1;strokeColor=none;fillColor=none;" vertex="1" parent="1">
          <mxGeometry x="710" y="210" width="90" height="30" as="geometry" />
        </mxCell>
      </root>
    </mxGraphModel>
  </diagram>
</mxfile>
